<?xml version="1.0" encoding="UTF-8"?>
<svg id="Warstwa_3" data-name="Warstwa 3" xmlns="http://www.w3.org/2000/svg" version="1.1" viewBox="0 0 850.39 1757.48">
  <defs>
    <style>
      .cls-1 {
        stroke: #1d1d1b;
        stroke-width: 3px;
      }

      .cls-1, .cls-2 {
        fill: none;
        stroke-linecap: round;
        stroke-linejoin: round;
      }

      .cls-2 {
        stroke: #eaeaea;
        stroke-width: 27px;
      }

      .cls-3 {
        display: none;
      }
    </style>
  </defs>
  <path class="cls-2" d="M425.2,623.63c-67.67,0-122.53,54.86-122.53,122.53s122.53,208.01,122.53,208.01c0,0,122.53-140.34,122.53-208.01s-54.86-122.53-122.53-122.53ZM425.2,787.66c-25.77,0-46.67-20.89-46.67-46.67s20.89-46.67,46.67-46.67,46.67,20.89,46.67,46.67-20.89,46.67-46.67,46.67Z"/>
  <g class="cls-3">
    <rect class="cls-1" y="1616.17" width="36.97" height="36.97"/>
    <rect class="cls-1" x="36.97" y="1616.17" width="36.97" height="36.97"/>
    <rect class="cls-1" x="73.95" y="1616.17" width="36.97" height="36.97"/>
    <rect class="cls-1" x="110.92" y="1616.17" width="36.97" height="36.97"/>
    <rect class="cls-1" x="147.89" y="1616.17" width="36.97" height="36.97"/>
    <rect class="cls-1" x="184.87" y="1616.17" width="36.97" height="36.97"/>
    <rect class="cls-1" x="295.79" y="1616.17" width="36.97" height="36.97"/>
    <rect class="cls-1" x="332.76" y="1616.17" width="36.97" height="36.97"/>
    <rect class="cls-1" x="369.74" y="1616.17" width="36.97" height="36.97"/>
    <rect class="cls-1" x="406.71" y="1616.17" width="36.97" height="36.97"/>
    <rect class="cls-1" x="443.68" y="1616.17" width="36.97" height="36.97"/>
    <rect class="cls-1" x="480.66" y="1616.17" width="36.97" height="36.97"/>
    <rect class="cls-1" x="517.63" y="1616.17" width="36.97" height="36.97"/>
    <rect class="cls-1" x="628.55" y="1616.17" width="36.97" height="36.97"/>
    <rect class="cls-1" x="665.53" y="1616.17" width="36.97" height="36.97"/>
    <g>
      <rect class="cls-1" x="554.6" y="1616.17" width="18.49" height="36.97"/>
      <rect class="cls-1" x="610.07" y="1616.17" width="18.49" height="36.97"/>
      <rect class="cls-1" x="573.09" y="1616.17" width="36.97" height="36.97"/>
    </g>
    <g>
      <rect class="cls-1" x="221.84" y="1616.17" width="18.49" height="36.97"/>
      <rect class="cls-1" x="277.3" y="1616.17" width="18.49" height="36.97"/>
      <rect class="cls-1" x="240.33" y="1616.17" width="36.97" height="36.97"/>
    </g>
    <rect class="cls-1" x="702.5" y="1616.17" width="36.97" height="36.97"/>
    <rect class="cls-1" x="739.47" y="1616.17" width="36.97" height="36.97"/>
    <rect class="cls-1" x="776.45" y="1616.17" width="36.97" height="36.97"/>
    <rect class="cls-1" x="813.42" y="1616.17" width="36.97" height="36.97"/>
  </g>
</svg>